<?xml version="1.0" encoding="utf-8"?>
<!-- Generator: Adobe Illustrator 16.0.5, SVG Export Plug-In . SVG Version: 6.00 Build 0)  -->
<!DOCTYPE svg PUBLIC "-//W3C//DTD SVG 1.1//EN" "http://www.w3.org/Graphics/SVG/1.1/DTD/svg11.dtd">
<svg version="1.1" id="Layer_1" xmlns="http://www.w3.org/2000/svg" xmlns:xlink="http://www.w3.org/1999/xlink" x="0px" y="0px"
	 width="430px" height="220px" viewBox="0 0 430 220" enable-background="new 0 0 430 220" xml:space="preserve">
<g>
	<defs>
		<rect id="SVGID_1_" x="-98.235" y="-203" width="625.833" height="625.833"/>
	</defs>
	<clipPath id="SVGID_2_">
		<use xlink:href="#SVGID_1_"  overflow="visible"/>
	</clipPath>
	<path clip-path="url(#SVGID_2_)" fill="#231F20" d="M194.742,120.846c0.015,0.032,0.029,0.062,0.05,0.093
		c0.296,0.265,0.687,0.234,0.982,0.021c0.94-0.625,1.869-1.232,2.798-1.838c-3.865,12.229-6.425,22.948-6.694,30.118
		c-0.021,0.694,0.626,1.097,1.148,0.713c2.509-1.727,8.704-5.81,14.824-8.467c0.267-0.109,0.58-0.334,0.5-0.821
		c-0.606-6.44,2.067-17.833,6.45-31.238c7.629-4.18,14.731-7.591,21.009-10.322c-0.29,17.914,0.859,35.86,4.684,50.897
		c0.147,0.661,0.713,0.883,1.275,0.465c5.296-3.533,8.879-5.435,13.504-7.417c0.496-0.175,0.651-0.631,0.469-1.041
		c-4.745-11.555-6.521-29.209-6.465-48.287c5.041-1.838,8.994-3.084,11.529-3.859c0.256-0.08,0.633-0.269,0.728-0.814
		c0.07-3.872,1.209-8.989,1.617-10.986c0.133-0.667-0.544-0.977-0.955-0.848c-3.761,1.13-8.053,2.625-12.649,4.373
		c1.102-27.685,5.41-56.279,9.687-72.359c0.166-0.525-0.062-1.165-0.988-0.939c-4.206,0.841-7.355,1.781-11.46,3.615
		c-0.272,0.111-0.591,0.203-0.708,0.886c-0.35,1.372-0.964,4.147-1.717,8.026c-0.096-0.027-0.2-0.044-0.3-0.027
		c-0.113,0.02-0.218,0.063-0.301,0.128h-0.018c-6.981,5.817-26.61,46.405-39.627,82.029c-4.717,2.669-9.155,5.354-13.083,7.984
		c-0.468,0.347-0.969,0.811-0.562,1.716C191.213,114.294,192.875,117.966,194.742,120.846 M239.965,47.815
		c-1.586,11.663-3.027,25.222-3.738,39.227c-5.313,2.307-10.778,4.849-16.165,7.505C225.962,78.807,233.258,61.953,239.965,47.815
		 M403.535,158.174c-90.683-7.556-221.813-5.825-369.497,40.31c-0.315,0.089-0.71,0.401-0.518,0.909
		c0.4,1.061,2.616,5.108,4.468,11.383c0.165,0.577,0.643,0.556,0.935,0.488c143.984-46.105,272.323-49.631,362.048-43.462
		c0.374,0.021,0.771-0.2,0.964-0.609c1.454-2.952,1.99-6.117,2.246-8.01C404.229,158.768,404.339,158.303,403.535,158.174
		 M261.051,134.328c2.008-1.009,6.575-3.215,12.162-5.377c0.26-0.12,0.599-0.363,0.459-0.908c-0.387-1.657-0.648-3.436-0.824-5.299
		c0.569-16.3,11.477-46.317,29.271-54.987c0.389-0.222,0.498-0.624,0.498-0.624s1.858-10.396,3.135-14.382
		c0.214-0.66-0.108-1.323-0.959-1.034c-10.208,3.431-19.167,13.965-25.155,25.086c2.615-9.242,5.259-16.841,6.537-20.437
		c0.199-0.606-0.371-1.02-0.808-0.926c-4.745,1.091-10.44,3.286-12.127,4.074c-0.199,0.094-0.475,0.252-0.621,0.673
		c-5.161,14.579-12.917,49.886-12.702,73.4C259.932,134.252,260.391,134.649,261.051,134.328 M58.64,103.665
		c-2.266-4.242-2.805-6.128-3.754-8.809c-0.034-0.09-0.387-0.719-1.162-0.309c-9.932,6.811-34.9,21.453-35.591,15.714
		c-0.801-6.736,24.817-22.977,56.354-36.427c-9.02,20.369-28.12,75.445-27.261,99.444c0.018,0.498,0.566,1.01,1.175,0.562
		c2.525-2.146,8.343-6.377,14.313-9.395c0.356-0.173,0.458-0.514,0.407-0.777c-3.111-19.911,17.241-74.639,25.511-95.516
		c4.842-1.818,9.739-3.546,14.631-5.127c-8.471,17.861-33.641,89.667-32.809,115.872c0.033,0.576,0.606,0.933,1.145,0.576
		c2.211-1.711,7.539-5.643,13.376-8.603c0.482-0.239,0.539-0.514,0.492-0.892c-0.168-1.105-0.252-2.351-0.269-3.713v0.012
		c0.805-16.999,14.326-53.389,20.962-53.598c5.606-0.183-8.071,45.157,8.642,49.683c5.168,1.403,12.912-2.864,21.113-10.131
		c16.199,12.36,44.638-15.175,49.318-22.51c0.138-0.219,0.399-0.674,0.033-1.243c-2.494-3.831-4.647-9.073-4.647-9.073
		s-0.48-0.747-1.147-0.128c-8.626,9.396-24.892,25.326-33.756,23.104c19.652-22.01,37.093-55.016,23.22-62.3
		c-19.119-10.026-54.038,32.454-39.778,63.015c-2.479,2.146-4.737,3.621-6.606,4.163c-10.763,3.067,3.067-47.691-4.595-55.081
		c-4.311-4.167-11.094,1.845-17.729,12.256c6.484-19.185,13.346-36.968,16.742-45.46c12.89-3.434,25.347-5.629,36.116-5.824
		c0.276-0.007,0.917,0.021,1.102-0.713c1.926-6.014,4.174-10.855,7.97-17.845c0.292-0.511-0.166-1.121-0.866-1
		C72.673,47.782-4.66,93.968,2.792,116.251c6.871,20.568,47.2-4.989,55.58-11.596C58.529,104.529,58.879,104.192,58.64,103.665
		 M160.729,92.786c3.458,2.479-9.194,24.54-21.736,39.859C135.732,115.002,155.508,89.042,160.729,92.786 M420.186,141.443
		c-15.555-6.037-60.943-23.916-93.805-66.801c23.28-25.046,49.663-44.294,66.8-53.223c0.348-0.205,0.531-0.562,0.277-1.02
		c-2.599-4.139-4.033-6.491-7.646-9.855c-0.327-0.286-0.616-0.323-1.048-0.064c-7.239,4.707-46.155,31.117-64.031,56.545
		c8.816-27.799,19.487-55.637,22.446-62.959c0.261-0.64-0.247-1.209-0.892-1.03c-4.386,1.195-8.016,2.114-13.347,4.4
		c-0.308,0.117-0.458,0.246-0.571,0.451c-5.733,10.188-36.21,97.135-35.048,125.905c0.01,0.388,0.525,0.842,1.02,0.582
		c3.552-2.104,7.555-4.208,13.51-7.164c0.398-0.157,0.462-0.572,0.426-0.801c-1.135-7.35,1.646-21.613,6.095-37.938
		c1.443-1.781,2.904-3.546,4.389-5.28c31.635,44.746,77.17,64.261,92.443,70.767c0.481,0.23,0.729,0.021,0.949-0.185
		c3.637-3.271,6.202-6.676,8.414-11.34C420.726,142.112,420.613,141.566,420.186,141.443"/>
	<path clip-path="url(#SVGID_2_)" fill="#231F20" d="M193.452,208.695c0.286,1.404,0.488,3.27,0.629,4.841h0.061
		c0.023-1.089,0.313-3.405,0.542-4.471l1.317-6.42c0.086-0.432,0.118-0.458,0.544-0.458h2.552c0.431,0,0.458,0.026,0.544,0.458
		l1.261,6.42c0.229,1.232,0.52,3.24,0.546,4.471h0.057c0.146-1.602,0.29-3.268,0.629-4.841l1.378-6.19
		c0.057-0.291,0.172-0.573,0.401-0.573c0.117,0,0.374,0.03,0.46,0.03l1.946,0.252c0.432,0.061,0.63,0.092,0.63,0.291
		c0,0.113-0.083,0.313-0.141,0.544l-3.985,13.156c-0.113,0.373-0.169,0.402-0.54,0.402h-2.24c-0.374,0-0.46-0.175-0.516-0.462
		l-1.403-7.28c-0.175-0.918-0.317-2.405-0.375-3.211h-0.058c-0.056,0.806-0.286,2.293-0.518,3.211l-1.718,7.28
		c-0.056,0.287-0.14,0.462-0.515,0.462h-2.235c-0.373,0-0.431-0.029-0.545-0.402l-3.437-13.156
		c-0.062-0.201-0.118-0.403-0.146-0.544c0-0.199,0.199-0.23,0.63-0.291l2.147-0.252c0.087,0,0.374-0.03,0.488-0.03
		c0.203,0,0.316,0.282,0.37,0.573L193.452,208.695z"/>
	<path clip-path="url(#SVGID_2_)" fill="#231F20" d="M222.324,215.946c0,0.313-0.062,0.399-0.405,0.399h-2.837
		c-0.344,0-0.403-0.086-0.403-0.399v-8.829c0-1.089-0.139-2.41-1.604-2.41c-1.201,0-2.061,0.864-2.434,1.207v10.032
		c0,0.313-0.053,0.399-0.401,0.399H211.4c-0.343,0-0.4-0.086-0.4-0.399v-19.261c0-0.428,0.199-0.428,0.542-0.519l2.411-0.489
		c0.084,0,0.343-0.084,0.401-0.084c0.232,0,0.286,0.115,0.286,0.604v7.139c0.776-0.63,1.922-1.635,3.959-1.635
		c3.031,0,3.725,2.034,3.725,4.528V215.946z"/>
	<path clip-path="url(#SVGID_2_)" fill="#231F20" d="M238.69,214.828c0.06,0.085,0.091,0.198,0.091,0.316
		c0,0.744-2.868,1.689-5.132,1.689c-3.785,0-6.42-2.151-6.42-7.425c0-4.556,2.437-7.708,6.274-7.708
		c4.875,0,5.734,4.352,5.734,7.824c0,0.545-0.118,0.717-0.661,0.717h-7.708c0,1.606,0.457,3.583,3.153,3.583
		c2.062,0,3.238-0.946,3.641-0.946c0.144,0,0.255,0.114,0.313,0.229L238.69,214.828z M235.368,207.575
		c0-1.174-0.085-3.208-2.062-3.208c-2.234,0-2.353,2.408-2.438,3.208H235.368z"/>
	<path clip-path="url(#SVGID_2_)" fill="#231F20" d="M247.759,215.946c0,0.313-0.061,0.399-0.399,0.399h-2.839
		c-0.344,0-0.401-0.086-0.401-0.399v-8.659c0-3.147-0.743-3.67-0.743-4.323c0-0.116,0.11-0.203,0.251-0.258l2.183-0.894
		c0.114-0.029,0.259-0.111,0.373-0.111c0.341,0,0.918,1.29,1.059,2.264c0.546-0.661,1.606-2.264,3.554-2.264
		c0.832,0,1.665,0.287,1.665,0.655c0,0.116-0.026,0.235-0.059,0.289l-0.889,2.407c-0.031,0.086-0.114,0.258-0.232,0.258
		c-0.167,0-0.681-0.312-1.348-0.312c-0.885,0-1.803,0.973-2.174,1.374V215.946z"/>
	<path clip-path="url(#SVGID_2_)" fill="#231F20" d="M266.047,214.828c0.058,0.085,0.089,0.198,0.089,0.316
		c0,0.744-2.864,1.689-5.134,1.689c-3.781,0-6.419-2.151-6.419-7.425c0-4.556,2.438-7.708,6.276-7.708
		c4.873,0,5.731,4.352,5.731,7.824c0,0.545-0.113,0.717-0.659,0.717h-7.706c0,1.606,0.456,3.583,3.152,3.583
		c2.062,0,3.238-0.946,3.64-0.946c0.142,0,0.254,0.114,0.313,0.229L266.047,214.828z M262.726,207.575
		c0-1.174-0.089-3.208-2.065-3.208c-2.237,0-2.351,2.408-2.435,3.208H262.726z"/>
	<path clip-path="url(#SVGID_2_)" fill="#231F20" d="M298.385,215.946c0,0.313-0.058,0.399-0.401,0.399h-2.838
		c-0.34,0-0.399-0.086-0.399-0.399v-8.829c0-1.089-0.114-2.41-1.207-2.41c-1.202,0-2.147,0.837-2.521,1.177v10.062
		c0,0.313-0.054,0.399-0.402,0.399h-2.833c-0.344,0-0.405-0.086-0.405-0.399v-8.829c0-1.089-0.108-2.41-1.202-2.41
		c-1.204,0-2.15,0.837-2.522,1.177v10.062c0,0.313-0.056,0.399-0.399,0.399h-2.839c-0.341,0-0.398-0.086-0.398-0.399v-8.659
		c0-4.04-0.544-3.811-0.544-4.473c0-0.139,0.112-0.254,0.312-0.312l2.18-0.72c0.167-0.056,0.316-0.082,0.426-0.082
		c0.375,0,0.604,0.63,0.919,1.976c0.86-0.743,2.121-1.976,4.384-1.976c1.234,0,2.579,0.771,2.923,1.976
		c0.861-0.743,2.096-1.976,4.444-1.976c2.695,0,3.324,2.034,3.324,4.528V215.946z"/>
	<path clip-path="url(#SVGID_2_)" fill="#231F20" d="M313.354,216.744c-0.168,0.062-0.314,0.089-0.428,0.089
		c-0.374,0-0.603-0.545-0.912-1.69c-0.779,0.691-2.126,1.69-4.39,1.69c-1.576,0-3.723-0.717-3.723-4.186v-9.856
		c0-0.404,0.196-0.433,0.54-0.515l2.407-0.492c0.086,0,0.372-0.084,0.457-0.084c0.173,0,0.229,0.114,0.229,0.603v9.113
		c0,1.091,0.146,2.406,1.61,2.406c1.201,0,2.147-0.632,2.521-0.886v-10.146c0-0.404,0.199-0.433,0.543-0.515l2.406-0.492
		c0.085,0,0.376-0.084,0.488-0.084c0.146,0,0.202,0.114,0.202,0.603v8.942c0,4.039,0.543,3.81,0.543,4.47
		c0,0.142-0.114,0.259-0.312,0.317L313.354,216.744z"/>
	<path clip-path="url(#SVGID_2_)" fill="#231F20" d="M329.241,205.054c-0.056,0.145-0.2,0.258-0.228,0.258
		c-0.09,0-1.492-0.748-3.327-0.748c-1.089,0-1.89,0.405-1.89,1.383c0,1.543,2.58,1.43,4.612,2.775
		c1.118,0.748,1.92,1.836,1.92,3.495c0,2.641-1.859,4.619-4.899,4.619c-2.12,0-5.387-1.089-5.387-1.864
		c0-0.087,0.115-0.26,0.143-0.373l0.633-1.634c0.057-0.146,0.11-0.256,0.224-0.256c0.114,0,2.324,1.26,4.099,1.26
		c0.945,0,1.752-0.401,1.752-1.435c0-1.66-2.809-1.66-4.701-2.924c-0.858-0.572-1.694-1.576-1.694-3.238
		c0-2.606,1.979-4.674,5.075-4.674c1.752,0,4.471,0.745,4.471,1.405c0,0.087-0.087,0.264-0.143,0.373L329.241,205.054z"/>
	<path clip-path="url(#SVGID_2_)" fill="#231F20" d="M339.737,215.946c0,0.313-0.057,0.397-0.401,0.397h-2.837
		c-0.349,0-0.403-0.084-0.403-0.397v-11.093h-2.202c-0.346,0-0.408-0.085-0.408-0.4v-1.861c0-0.317,0.062-0.405,0.408-0.405h5.442
		c0.345,0,0.401,0.088,0.401,0.405V215.946z M337.902,200.325c-1.321,0-2.381-1.06-2.381-2.38c0-1.318,1.06-2.353,2.381-2.353
		c1.288,0,2.351,1.034,2.351,2.353C340.253,199.266,339.19,200.325,337.902,200.325"/>
	<path clip-path="url(#SVGID_2_)" fill="#231F20" d="M355.276,215.025c0.027,0.089,0.081,0.202,0.081,0.287
		c0,0.69-2.322,1.521-4.041,1.521c-3.982,0-6.36-2.438-6.36-7.278c0-4.847,2.438-7.855,6.678-7.855c1.55,0,4.072,0.863,4.072,1.752
		c0,0.084-0.059,0.168-0.087,0.254l-1.062,1.862c-0.052,0.059-0.112,0.143-0.196,0.143c-0.288,0-1.237-1.146-2.727-1.146
		c-1.947,0-2.806,1.488-2.806,4.786c0,3.155,0.744,4.619,2.952,4.619c1.461,0,2.032-0.977,2.55-0.977
		c0.085,0,0.144,0.058,0.201,0.143L355.276,215.025z"/>
	<path clip-path="url(#SVGID_2_)" fill="#231F20" d="M374.146,215.802c0.026,0.145,0.056,0.145,0.056,0.229
		c0,0.404-1.522,0.806-2.895,0.806c-3.525,0-3.525-2.898-3.525-5.535v-14.615c0-0.426,0.198-0.426,0.541-0.519l2.408-0.489
		c0.088,0,0.345-0.084,0.4-0.084c0.231,0,0.286,0.115,0.286,0.604v15.618c0,0.919,0,1.721,0.805,1.721
		c0.575,0,0.947-0.258,1.116-0.258c0.115,0,0.199,0.06,0.23,0.174L374.146,215.802z"/>
	<path clip-path="url(#SVGID_2_)" fill="#231F20" d="M382.832,215.946c0,0.313-0.058,0.397-0.406,0.397h-2.833
		c-0.348,0-0.405-0.084-0.405-0.397v-11.093h-2.205c-0.344,0-0.399-0.085-0.399-0.4v-1.861c0-0.317,0.056-0.405,0.399-0.405h5.443
		c0.349,0,0.406,0.088,0.406,0.405V215.946z M380.996,200.325c-1.318,0-2.377-1.06-2.377-2.38c0-1.318,1.059-2.353,2.377-2.353
		c1.289,0,2.35,1.034,2.35,2.353C383.346,199.266,382.285,200.325,380.996,200.325"/>
	<path clip-path="url(#SVGID_2_)" fill="#231F20" d="M395.162,216.232c-0.116,0.314-0.146,0.374-0.548,0.374h-2.348
		c-0.402,0-0.432-0.06-0.546-0.374l-4.561-13.214c-0.026-0.055-0.117-0.287-0.141-0.485c0-0.228,0.203-0.259,0.632-0.32l2.378-0.252
		c0.086,0,0.4-0.029,0.459-0.029c0.225,0,0.316,0.281,0.397,0.571l1.749,6.449c0.317,1.147,0.748,3.096,0.917,4.153h0.061
		c0.172-1.03,0.634-3.037,0.974-4.153l1.948-6.449c0.087-0.316,0.172-0.571,0.401-0.571c0.058,0,0.374,0.029,0.456,0.029
		l1.952,0.252c0.428,0.062,0.63,0.093,0.63,0.32c-0.027,0.198-0.112,0.431-0.145,0.485L395.162,216.232z"/>
	<path clip-path="url(#SVGID_2_)" fill="#231F20" d="M413.997,214.828c0.054,0.085,0.082,0.198,0.082,0.316
		c0,0.744-2.865,1.689-5.13,1.689c-3.781,0-6.418-2.151-6.418-7.425c0-4.556,2.437-7.708,6.272-7.708
		c4.876,0,5.733,4.352,5.733,7.824c0,0.545-0.113,0.717-0.658,0.717h-7.708c0,1.606,0.455,3.583,3.151,3.583
		c2.061,0,3.24-0.946,3.641-0.946c0.141,0,0.259,0.114,0.316,0.229L413.997,214.828z M410.67,207.575
		c0-1.174-0.088-3.208-2.065-3.208c-2.235,0-2.351,2.408-2.434,3.208H410.67z"/>
	<path clip-path="url(#SVGID_2_)" fill="#231F20" d="M427.558,205.054c-0.058,0.145-0.201,0.258-0.231,0.258
		c-0.082,0-1.486-0.748-3.32-0.748c-1.09,0-1.895,0.405-1.895,1.383c0,1.543,2.58,1.43,4.612,2.775
		c1.122,0.748,1.924,1.836,1.924,3.495c0,2.641-1.864,4.619-4.901,4.619c-2.123,0-5.389-1.089-5.389-1.864
		c0-0.087,0.114-0.26,0.142-0.373l0.635-1.634c0.056-0.146,0.113-0.256,0.228-0.256c0.109,0,2.319,1.26,4.098,1.26
		c0.945,0,1.748-0.401,1.748-1.435c0-1.66-2.809-1.66-4.701-2.924c-0.858-0.572-1.689-1.576-1.689-3.238
		c0-2.606,1.979-4.674,5.07-4.674c1.75,0,4.475,0.745,4.475,1.405c0,0.087-0.089,0.264-0.144,0.373L427.558,205.054z"/>
	<path clip-path="url(#SVGID_2_)" fill="#231F20" d="M194.742,120.846c0.015,0.032,0.029,0.062,0.05,0.093
		c0.296,0.265,0.687,0.234,0.982,0.021c0.94-0.625,1.869-1.232,2.798-1.838c-3.865,12.229-6.425,22.948-6.694,30.118
		c-0.021,0.694,0.626,1.097,1.148,0.713c2.509-1.727,8.704-5.81,14.824-8.467c0.267-0.109,0.58-0.334,0.5-0.821
		c-0.606-6.44,2.067-17.833,6.45-31.238c7.629-4.18,14.731-7.591,21.009-10.322c-0.29,17.914,0.859,35.86,4.684,50.897
		c0.147,0.661,0.713,0.883,1.275,0.465c5.296-3.533,8.879-5.435,13.504-7.417c0.496-0.175,0.651-0.631,0.469-1.041
		c-4.745-11.555-6.521-29.209-6.465-48.287c5.041-1.838,8.994-3.084,11.529-3.859c0.256-0.08,0.633-0.269,0.728-0.814
		c0.07-3.872,1.209-8.989,1.617-10.986c0.133-0.667-0.544-0.977-0.955-0.848c-3.761,1.13-8.053,2.625-12.649,4.373
		c1.102-27.685,5.41-56.279,9.687-72.359c0.166-0.525-0.062-1.165-0.988-0.939c-4.206,0.841-7.355,1.781-11.46,3.615
		c-0.272,0.111-0.591,0.203-0.708,0.886c-0.35,1.372-0.964,4.147-1.717,8.026c-0.096-0.027-0.2-0.044-0.3-0.027
		c-0.113,0.02-0.218,0.063-0.301,0.128h-0.018c-6.981,5.817-26.61,46.405-39.627,82.029c-4.717,2.669-9.155,5.354-13.083,7.984
		c-0.468,0.347-0.969,0.811-0.562,1.716C191.213,114.294,192.875,117.966,194.742,120.846 M239.965,47.815
		c-1.586,11.663-3.027,25.222-3.738,39.227c-5.313,2.307-10.778,4.849-16.165,7.505C225.962,78.807,233.258,61.953,239.965,47.815
		 M403.535,158.174c-90.683-7.556-221.813-5.825-369.497,40.31c-0.315,0.089-0.71,0.401-0.518,0.909
		c0.4,1.061,2.616,5.108,4.468,11.383c0.165,0.577,0.643,0.556,0.935,0.488c143.984-46.105,272.323-49.631,362.048-43.462
		c0.374,0.021,0.771-0.2,0.964-0.609c1.454-2.952,1.99-6.117,2.246-8.01C404.229,158.768,404.339,158.303,403.535,158.174
		 M261.051,134.328c2.008-1.009,6.575-3.215,12.162-5.377c0.26-0.12,0.599-0.363,0.459-0.908c-0.387-1.657-0.648-3.436-0.824-5.299
		c0.569-16.3,11.477-46.317,29.271-54.987c0.389-0.222,0.498-0.624,0.498-0.624s1.858-10.396,3.135-14.382
		c0.214-0.66-0.108-1.323-0.959-1.034c-10.208,3.431-19.167,13.965-25.155,25.086c2.615-9.242,5.259-16.841,6.537-20.437
		c0.199-0.606-0.371-1.02-0.808-0.926c-4.745,1.091-10.44,3.286-12.127,4.074c-0.199,0.094-0.475,0.252-0.621,0.673
		c-5.161,14.579-12.917,49.886-12.702,73.4C259.932,134.252,260.391,134.649,261.051,134.328 M58.64,103.665
		c-2.266-4.242-2.805-6.128-3.754-8.809c-0.034-0.09-0.387-0.719-1.162-0.309c-9.932,6.811-34.9,21.453-35.591,15.714
		c-0.801-6.736,24.817-22.977,56.354-36.427c-9.02,20.369-28.12,75.445-27.261,99.444c0.018,0.498,0.566,1.01,1.175,0.562
		c2.525-2.146,8.343-6.377,14.313-9.395c0.356-0.173,0.458-0.514,0.407-0.777c-3.111-19.911,17.241-74.639,25.511-95.516
		c4.842-1.818,9.739-3.546,14.631-5.127c-8.471,17.861-33.641,89.667-32.809,115.872c0.033,0.576,0.606,0.933,1.145,0.576
		c2.211-1.711,7.539-5.643,13.376-8.603c0.482-0.239,0.539-0.514,0.492-0.892c-0.168-1.105-0.252-2.351-0.269-3.713v0.012
		c0.805-16.999,14.326-53.389,20.962-53.598c5.606-0.183-8.071,45.157,8.642,49.683c5.168,1.403,12.912-2.864,21.113-10.131
		c16.199,12.36,44.638-15.175,49.318-22.51c0.138-0.219,0.399-0.674,0.033-1.243c-2.494-3.831-4.647-9.073-4.647-9.073
		s-0.48-0.747-1.147-0.128c-8.626,9.396-24.892,25.326-33.756,23.104c19.652-22.01,37.093-55.016,23.22-62.3
		c-19.119-10.026-54.038,32.454-39.778,63.015c-2.479,2.146-4.737,3.621-6.606,4.163c-10.763,3.067,3.067-47.691-4.595-55.081
		c-4.311-4.167-11.094,1.845-17.729,12.256c6.484-19.185,13.346-36.968,16.742-45.46c12.89-3.434,25.347-5.629,36.116-5.824
		c0.276-0.007,0.917,0.021,1.102-0.713c1.926-6.014,4.174-10.855,7.97-17.845c0.292-0.511-0.166-1.121-0.866-1
		C72.673,47.782-4.66,93.968,2.792,116.251c6.871,20.568,47.2-4.989,55.58-11.596C58.529,104.529,58.879,104.192,58.64,103.665
		 M160.729,92.786c3.458,2.479-9.194,24.54-21.736,39.859C135.732,115.002,155.508,89.042,160.729,92.786 M420.186,141.443
		c-15.555-6.037-60.943-23.916-93.805-66.801c23.28-25.046,49.663-44.294,66.8-53.223c0.348-0.205,0.531-0.562,0.277-1.02
		c-2.599-4.139-4.033-6.491-7.646-9.855c-0.327-0.286-0.616-0.323-1.048-0.064c-7.239,4.707-46.155,31.117-64.031,56.545
		c8.816-27.799,19.487-55.637,22.446-62.959c0.261-0.64-0.247-1.209-0.892-1.03c-4.386,1.195-8.016,2.114-13.347,4.4
		c-0.308,0.117-0.458,0.246-0.571,0.451c-5.733,10.188-36.21,97.135-35.048,125.905c0.01,0.388,0.525,0.842,1.02,0.582
		c3.552-2.104,7.555-4.208,13.51-7.164c0.398-0.157,0.462-0.572,0.426-0.801c-1.135-7.35,1.646-21.613,6.095-37.938
		c1.443-1.781,2.904-3.546,4.389-5.28c31.635,44.746,77.17,64.261,92.443,70.767c0.481,0.23,0.729,0.021,0.949-0.185
		c3.637-3.271,6.202-6.676,8.414-11.34C420.726,142.112,420.613,141.566,420.186,141.443"/>
</g>
</svg>
